<mxfile host="app.diagrams.net" modified="2021-03-28T20:30:02.201Z" agent="5.0 (Windows NT 10.0; Win64; x64) AppleWebKit/537.36 (KHTML, like Gecko) Chrome/89.0.4389.90 Safari/537.36" etag="IAqov24jDx5HVtDP2aOf" version="14.5.3" type="github">
  <diagram id="K-rmf3jjGAIAvlxRga7S" name="Page-1">
    <mxGraphModel dx="2942" dy="1154" grid="1" gridSize="10" guides="1" tooltips="1" connect="1" arrows="1" fold="1" page="1" pageScale="1" pageWidth="827" pageHeight="1169" math="0" shadow="0">
      <root>
        <mxCell id="0" />
        <mxCell id="1" parent="0" />
        <mxCell id="omE65bLu0O2rR7NsysLD-10" value="" style="group;" vertex="1" connectable="0" parent="1">
          <mxGeometry x="40" y="40" width="450" height="170" as="geometry" />
        </mxCell>
        <mxCell id="omE65bLu0O2rR7NsysLD-1" value="Mesh" style="rounded=0;whiteSpace=wrap;html=1;fillColor=#d5e8d4;strokeColor=#82b366;" vertex="1" parent="omE65bLu0O2rR7NsysLD-10">
          <mxGeometry x="170" width="120" height="60" as="geometry" />
        </mxCell>
        <mxCell id="omE65bLu0O2rR7NsysLD-2" value="Pylogons" style="rounded=0;whiteSpace=wrap;html=1;fillColor=#fff2cc;strokeColor=#d6b656;" vertex="1" parent="omE65bLu0O2rR7NsysLD-10">
          <mxGeometry width="120" height="60" as="geometry" />
        </mxCell>
        <mxCell id="omE65bLu0O2rR7NsysLD-6" style="edgeStyle=orthogonalEdgeStyle;rounded=0;orthogonalLoop=1;jettySize=auto;html=1;entryX=1;entryY=0.5;entryDx=0;entryDy=0;" edge="1" parent="omE65bLu0O2rR7NsysLD-10" source="omE65bLu0O2rR7NsysLD-1" target="omE65bLu0O2rR7NsysLD-2">
          <mxGeometry relative="1" as="geometry" />
        </mxCell>
        <mxCell id="omE65bLu0O2rR7NsysLD-3" value="Textures" style="rounded=0;whiteSpace=wrap;html=1;fillColor=#fff2cc;strokeColor=#d6b656;" vertex="1" parent="omE65bLu0O2rR7NsysLD-10">
          <mxGeometry x="70" y="110" width="120" height="60" as="geometry" />
        </mxCell>
        <mxCell id="omE65bLu0O2rR7NsysLD-7" style="edgeStyle=orthogonalEdgeStyle;rounded=0;orthogonalLoop=1;jettySize=auto;html=1;" edge="1" parent="omE65bLu0O2rR7NsysLD-10" source="omE65bLu0O2rR7NsysLD-1" target="omE65bLu0O2rR7NsysLD-3">
          <mxGeometry relative="1" as="geometry" />
        </mxCell>
        <mxCell id="omE65bLu0O2rR7NsysLD-4" value="Verticies" style="rounded=0;whiteSpace=wrap;html=1;fillColor=#fff2cc;strokeColor=#d6b656;" vertex="1" parent="omE65bLu0O2rR7NsysLD-10">
          <mxGeometry x="270" y="110" width="120" height="60" as="geometry" />
        </mxCell>
        <mxCell id="omE65bLu0O2rR7NsysLD-8" style="edgeStyle=orthogonalEdgeStyle;rounded=0;orthogonalLoop=1;jettySize=auto;html=1;" edge="1" parent="omE65bLu0O2rR7NsysLD-10" source="omE65bLu0O2rR7NsysLD-1" target="omE65bLu0O2rR7NsysLD-4">
          <mxGeometry relative="1" as="geometry" />
        </mxCell>
        <mxCell id="omE65bLu0O2rR7NsysLD-5" value="UVSets" style="rounded=0;whiteSpace=wrap;html=1;fillColor=#fff2cc;strokeColor=#d6b656;" vertex="1" parent="omE65bLu0O2rR7NsysLD-10">
          <mxGeometry x="330" width="120" height="60" as="geometry" />
        </mxCell>
        <mxCell id="omE65bLu0O2rR7NsysLD-9" style="edgeStyle=orthogonalEdgeStyle;rounded=0;orthogonalLoop=1;jettySize=auto;html=1;entryX=0;entryY=0.5;entryDx=0;entryDy=0;" edge="1" parent="omE65bLu0O2rR7NsysLD-10" source="omE65bLu0O2rR7NsysLD-1" target="omE65bLu0O2rR7NsysLD-5">
          <mxGeometry relative="1" as="geometry" />
        </mxCell>
        <mxCell id="omE65bLu0O2rR7NsysLD-30" value="" style="group;" vertex="1" connectable="0" parent="1">
          <mxGeometry x="520" y="40" width="280" height="160" as="geometry" />
        </mxCell>
        <mxCell id="omE65bLu0O2rR7NsysLD-21" value="UVSet" style="rounded=0;whiteSpace=wrap;html=1;fillColor=#d5e8d4;strokeColor=#82b366;" vertex="1" parent="omE65bLu0O2rR7NsysLD-30">
          <mxGeometry x="80" width="120" height="60" as="geometry" />
        </mxCell>
        <mxCell id="omE65bLu0O2rR7NsysLD-22" value="TextureID" style="rounded=0;whiteSpace=wrap;html=1;fillColor=#fff2cc;strokeColor=#d6b656;" vertex="1" parent="omE65bLu0O2rR7NsysLD-30">
          <mxGeometry y="100" width="120" height="60" as="geometry" />
        </mxCell>
        <mxCell id="omE65bLu0O2rR7NsysLD-28" style="edgeStyle=orthogonalEdgeStyle;rounded=0;orthogonalLoop=1;jettySize=auto;html=1;entryX=0.5;entryY=0;entryDx=0;entryDy=0;" edge="1" parent="omE65bLu0O2rR7NsysLD-30" source="omE65bLu0O2rR7NsysLD-21" target="omE65bLu0O2rR7NsysLD-22">
          <mxGeometry relative="1" as="geometry" />
        </mxCell>
        <mxCell id="omE65bLu0O2rR7NsysLD-23" value="UVs" style="rounded=0;whiteSpace=wrap;html=1;fillColor=#fff2cc;strokeColor=#d6b656;" vertex="1" parent="omE65bLu0O2rR7NsysLD-30">
          <mxGeometry x="160" y="100" width="120" height="60" as="geometry" />
        </mxCell>
        <mxCell id="omE65bLu0O2rR7NsysLD-29" style="edgeStyle=orthogonalEdgeStyle;rounded=0;orthogonalLoop=1;jettySize=auto;html=1;entryX=0.5;entryY=0;entryDx=0;entryDy=0;" edge="1" parent="omE65bLu0O2rR7NsysLD-30" source="omE65bLu0O2rR7NsysLD-21" target="omE65bLu0O2rR7NsysLD-23">
          <mxGeometry relative="1" as="geometry" />
        </mxCell>
        <mxCell id="omE65bLu0O2rR7NsysLD-32" style="edgeStyle=orthogonalEdgeStyle;rounded=0;orthogonalLoop=1;jettySize=auto;html=1;entryX=0.5;entryY=0;entryDx=0;entryDy=0;" edge="1" parent="1" source="omE65bLu0O2rR7NsysLD-11" target="omE65bLu0O2rR7NsysLD-13">
          <mxGeometry relative="1" as="geometry">
            <Array as="points">
              <mxPoint x="260" y="330" />
              <mxPoint x="100" y="330" />
            </Array>
          </mxGeometry>
        </mxCell>
        <mxCell id="omE65bLu0O2rR7NsysLD-33" style="edgeStyle=orthogonalEdgeStyle;rounded=0;orthogonalLoop=1;jettySize=auto;html=1;" edge="1" parent="1" source="omE65bLu0O2rR7NsysLD-11" target="omE65bLu0O2rR7NsysLD-31">
          <mxGeometry relative="1" as="geometry" />
        </mxCell>
        <mxCell id="omE65bLu0O2rR7NsysLD-34" style="edgeStyle=orthogonalEdgeStyle;rounded=0;orthogonalLoop=1;jettySize=auto;html=1;" edge="1" parent="1" source="omE65bLu0O2rR7NsysLD-11" target="omE65bLu0O2rR7NsysLD-15">
          <mxGeometry relative="1" as="geometry">
            <Array as="points">
              <mxPoint x="260" y="330" />
              <mxPoint x="420" y="330" />
            </Array>
          </mxGeometry>
        </mxCell>
        <mxCell id="omE65bLu0O2rR7NsysLD-11" value="Polygon" style="rounded=0;whiteSpace=wrap;html=1;fillColor=#d5e8d4;strokeColor=#82b366;" vertex="1" parent="1">
          <mxGeometry x="200" y="250" width="120" height="60" as="geometry" />
        </mxCell>
        <mxCell id="omE65bLu0O2rR7NsysLD-12" value="Indicies" style="rounded=0;whiteSpace=wrap;html=1;fillColor=#fff2cc;strokeColor=#d6b656;" vertex="1" parent="1">
          <mxGeometry x="40" y="250" width="120" height="60" as="geometry" />
        </mxCell>
        <mxCell id="omE65bLu0O2rR7NsysLD-18" style="edgeStyle=orthogonalEdgeStyle;rounded=0;orthogonalLoop=1;jettySize=auto;html=1;entryX=1;entryY=0.5;entryDx=0;entryDy=0;" edge="1" parent="1" source="omE65bLu0O2rR7NsysLD-11" target="omE65bLu0O2rR7NsysLD-12">
          <mxGeometry x="40" y="250" as="geometry" />
        </mxCell>
        <mxCell id="omE65bLu0O2rR7NsysLD-13" value="Normals" style="rounded=0;whiteSpace=wrap;html=1;fillColor=#fff2cc;strokeColor=#d6b656;" vertex="1" parent="1">
          <mxGeometry x="40" y="360" width="120" height="60" as="geometry" />
        </mxCell>
        <mxCell id="omE65bLu0O2rR7NsysLD-14" value="Binormals" style="rounded=0;whiteSpace=wrap;html=1;fillColor=#fff2cc;strokeColor=#d6b656;" vertex="1" parent="1">
          <mxGeometry x="360" y="250" width="120" height="60" as="geometry" />
        </mxCell>
        <mxCell id="omE65bLu0O2rR7NsysLD-19" style="edgeStyle=orthogonalEdgeStyle;rounded=0;orthogonalLoop=1;jettySize=auto;html=1;entryX=0;entryY=0.5;entryDx=0;entryDy=0;" edge="1" parent="1" source="omE65bLu0O2rR7NsysLD-11" target="omE65bLu0O2rR7NsysLD-14">
          <mxGeometry x="40" y="250" as="geometry" />
        </mxCell>
        <mxCell id="omE65bLu0O2rR7NsysLD-15" value="Tangents" style="rounded=0;whiteSpace=wrap;html=1;fillColor=#fff2cc;strokeColor=#d6b656;" vertex="1" parent="1">
          <mxGeometry x="360" y="360" width="120" height="60" as="geometry" />
        </mxCell>
        <mxCell id="omE65bLu0O2rR7NsysLD-31" value="Colors" style="rounded=0;whiteSpace=wrap;html=1;fillColor=#fff2cc;strokeColor=#d6b656;" vertex="1" parent="1">
          <mxGeometry x="200" y="360" width="120" height="60" as="geometry" />
        </mxCell>
      </root>
    </mxGraphModel>
  </diagram>
</mxfile>
